<svg  viewBox="0 0 776 1200" fill="none" xmlns="http://www.w3.org/2000/svg">
<g opacity="0.1">
<path d="M148.122 340C152.842 340 156.668 336.174 156.668 331.454C156.668 326.735 152.842 322.909 148.122 322.909C143.402 322.909 139.576 326.735 139.576 331.454C139.576 336.174 143.402 340 148.122 340Z" stroke="#00CFDB" stroke-width="3.2682" stroke-miterlimit="10"/>
<path d="M0 283H25.4722C28.9999 283 31.8579 285.858 31.8579 289.386V297.931C31.8579 299.625 32.5323 301.252 33.7302 302.45L61.1172 329.837C62.3151 331.034 63.9375 331.709 65.6353 331.709H113.16" stroke="#2BD3F2" stroke-width="3" stroke-miterlimit="10"/>
<path d="M690.122 403.15H639.852C638.562 403.15 637.521 402.11 637.521 400.82C637.521 399.53 638.562 398.49 639.852 398.49H690.122C691.412 398.49 692.452 399.53 692.452 400.82C692.442 402.1 691.402 403.15 690.122 403.15Z" fill="#00C9DA"/>
<path d="M511.981 308.52C519.028 308.52 524.741 302.807 524.741 295.76C524.741 288.713 519.028 283 511.981 283C504.934 283 499.221 288.713 499.221 295.76C499.221 302.807 504.934 308.52 511.981 308.52Z" fill="#2BD3F2"/>
<path d="M313.78 437.531H257.44C256 437.531 254.83 436.361 254.83 434.921C254.83 433.481 256 432.311 257.44 432.311H313.78C315.22 432.311 316.39 433.481 316.39 434.921C316.39 436.361 315.22 437.531 313.78 437.531Z" fill="#00C9DA"/>
<path d="M150.7 502.841H23.3199C20.9299 502.841 19 500.901 19 498.521C19 496.131 20.9399 494.201 23.3199 494.201H150.7C153.09 494.201 155.02 496.141 155.02 498.521C155.03 500.911 153.09 502.841 150.7 502.841Z" fill="#2BD3F2"/>
<path d="M279.151 501.349C283.103 497.397 283.103 490.989 279.151 487.037C275.199 483.085 268.792 483.085 264.839 487.037C260.887 490.989 260.887 497.397 264.839 501.349C268.792 505.301 275.199 505.301 279.151 501.349Z" stroke="#2BD3F2" stroke-width="1.1972" stroke-miterlimit="10"/>
</g>
<g opacity="0.1">
<path d="M544.329 836.505C539.61 836.505 535.784 840.331 535.784 845.05C535.784 849.77 539.61 853.596 544.329 853.596C549.049 853.596 552.875 849.77 552.875 845.05C552.875 840.331 549.049 836.505 544.329 836.505Z" stroke="#00CFDB" stroke-width="3.2682" stroke-miterlimit="10"/>
<path d="M692.451 893.505L666.979 893.505C663.451 893.505 660.593 890.647 660.593 887.119L660.593 878.573C660.593 876.88 659.919 875.253 658.721 874.055L631.334 846.668C630.136 845.47 628.514 844.796 626.816 844.796L579.291 844.796" stroke="#2BD3F2" stroke-width="3" stroke-miterlimit="10"/>
<path d="M2.32959 773.355L52.5996 773.355C53.8896 773.355 54.9297 774.395 54.9297 775.685C54.9297 776.975 53.8896 778.015 52.5996 778.015L2.32959 778.015C1.03959 778.015 -0.00048819 776.975 -0.000488078 775.685C0.00951036 774.405 1.04959 773.355 2.32959 773.355Z" fill="#00C9DA"/>
<path d="M180.47 867.985C173.423 867.985 167.71 873.698 167.71 880.745C167.71 887.792 173.423 893.505 180.47 893.505C187.518 893.505 193.23 887.792 193.23 880.745C193.23 873.698 187.518 867.985 180.47 867.985Z" fill="#2BD3F2"/>
<path d="M378.671 738.974L435.011 738.974C436.451 738.974 437.621 740.144 437.621 741.584C437.621 743.024 436.451 744.194 435.011 744.194L378.671 744.194C377.231 744.194 376.061 743.024 376.061 741.584C376.061 740.144 377.231 738.974 378.671 738.974Z" fill="#00C9DA"/>
<path d="M541.751 673.664L669.131 673.664C671.521 673.664 673.451 675.604 673.451 677.984C673.451 680.374 671.511 682.304 669.131 682.304L541.751 682.304C539.361 682.304 537.431 680.364 537.431 677.984C537.421 675.594 539.361 673.664 541.751 673.664Z" fill="#2BD3F2"/>
<path d="M413.3 675.156C409.348 679.108 409.348 685.516 413.3 689.468C417.252 693.42 423.66 693.42 427.612 689.468C431.564 685.516 431.564 679.108 427.612 675.156C423.66 671.204 417.252 671.204 413.3 675.156Z" stroke="#2BD3F2" stroke-width="1.1972" stroke-miterlimit="10"/>
</g>
<path d="M676.845 974.424C679.635 974.424 682.285 976.094 683.395 978.824C684.855 982.434 683.115 986.554 679.505 988.014C677.755 988.724 675.835 988.704 674.105 987.974C672.365 987.244 671.026 985.874 670.316 984.124C669.606 982.374 669.625 980.464 670.355 978.724C671.085 976.984 672.456 975.644 674.206 974.934C675.066 974.594 675.965 974.424 676.845 974.424ZM681.285 979.684C680.295 977.244 677.506 976.054 675.056 977.044C673.876 977.524 672.946 978.444 672.446 979.614C671.946 980.794 671.936 982.094 672.416 983.274C672.896 984.454 673.815 985.384 674.985 985.884C676.165 986.384 677.465 986.394 678.655 985.914C681.095 984.924 682.275 982.134 681.285 979.684Z" fill="#00F8FC"/>
<path d="M675.716 987.404L677.986 987.404L677.986 1081.99L699.166 1114.89L699.166 1294.09L696.896 1294.09L696.896 1115.56L675.716 1082.66L675.716 987.404Z" fill="#00F8FC"/>
<path d="M744.277 1078.87C745.507 1081.9 744.047 1085.35 741.017 1086.58C737.987 1087.81 734.537 1086.35 733.307 1083.32C732.077 1080.29 733.537 1076.84 736.567 1075.61C739.597 1074.38 743.057 1075.84 744.277 1078.87Z" fill="#00F8FC"/>
<path d="M737.656 1079.65L739.926 1079.65L739.926 1217.34L718.506 1234.61L717.076 1232.84L737.656 1216.26L737.656 1079.65Z" fill="#00F8FC"/>
<path d="M622.516 1056.44C623.446 1056.44 624.386 1056.63 625.266 1057C626.996 1057.73 628.346 1059.1 629.056 1060.85C629.766 1062.6 629.746 1064.51 629.016 1066.25C628.286 1067.99 626.916 1069.33 625.166 1070.04C621.566 1071.51 617.436 1069.76 615.976 1066.15C615.266 1064.4 615.286 1062.49 616.016 1060.75C616.746 1059.01 618.116 1057.67 619.866 1056.96C620.726 1056.61 621.616 1056.44 622.516 1056.44ZM622.526 1068.28C623.126 1068.28 623.726 1068.17 624.316 1067.93C625.496 1067.45 626.426 1066.54 626.926 1065.36C627.426 1064.18 627.436 1062.88 626.956 1061.7C626.476 1060.52 625.556 1059.59 624.386 1059.09C623.216 1058.59 621.906 1058.58 620.726 1059.06C619.546 1059.54 618.616 1060.46 618.116 1061.63C617.616 1062.81 617.606 1064.11 618.086 1065.3C618.836 1067.16 620.636 1068.28 622.526 1068.28Z" fill="#00F8FC"/>
<path d="M617.207 1064.48L618.637 1066.25L598.057 1082.83L598.057 1219.44L595.787 1219.44L595.787 1081.74L617.207 1064.48Z" fill="#00F8FC"/>
<path d="M647.236 914.404L649.516 914.404L649.516 1098.61L649.306 1098.9L620.176 1141.1L620.176 1294.09L617.906 1294.09L617.906 1140.39L618.106 1140.1L647.236 1097.9L647.236 914.404Z" fill="#00F8FC"/>
<path d="M663.986 1294.09L663.986 1037.5L661.716 1037.5L661.716 1294.09L663.986 1294.09Z" fill="#00F8FC"/>
<path d="M657.367 1037.25C656.137 1034.22 657.597 1030.77 660.627 1029.54C663.657 1028.31 667.107 1029.77 668.337 1032.8C669.567 1035.83 668.107 1039.28 665.077 1040.51C662.047 1041.74 658.597 1040.28 657.367 1037.25Z" fill="#00F8FC"/>
<path d="M644.027 915.764C642.797 912.734 644.257 909.284 647.287 908.054C650.317 906.824 653.767 908.284 654.997 911.314C656.227 914.344 654.767 917.794 651.737 919.024C648.707 920.254 645.257 918.794 644.027 915.764Z" fill="#00F8FC"/>
<path opacity="0.29" d="M229.613 -31.3299C229.613 -31.3299 761.633 119.89 798.973 408.81L798.973 -38.7099L229.613 -31.3299Z" fill="url(#paint0_linear_66_853)"/>
<path opacity="0.29" d="M107.164 -59.9398C107.164 -59.9398 774.844 228.25 821.704 778.87L821.704 -73.9999L107.164 -59.9398Z" fill="url(#paint1_linear_66_853)"/>
<path opacity="0.25" d="M480.314 -24.64C480.314 -24.64 706.024 159.16 798.964 602.77L798.964 -38.6999L480.314 -24.64Z" fill="url(#paint2_linear_66_853)"/>
<defs>
<linearGradient id="paint0_linear_66_853" x1="463.17" y1="285.418" x2="635.223" y2="-39.9479" gradientUnits="userSpaceOnUse">
<stop stop-color="white"/>
<stop offset="1" stop-color="#140137"/>
</linearGradient>
<linearGradient id="paint1_linear_66_853" x1="326.526" y1="620.258" x2="654.416" y2="0.188224" gradientUnits="userSpaceOnUse">
<stop stop-color="white"/>
<stop offset="1" stop-color="#140137"/>
</linearGradient>
<linearGradient id="paint2_linear_66_853" x1="512.736" y1="529.057" x2="759.355" y2="62.6791" gradientUnits="userSpaceOnUse">
<stop stop-color="white"/>
<stop offset="1" stop-color="#140137"/>
</linearGradient>
</defs>
</svg>
