<svg id="Layer_1" data-name="Layer 1" xmlns="http://www.w3.org/2000/svg" xmlns:xlink="http://www.w3.org/1999/xlink" viewBox="0 0 1577.5 361.59">
	<defs>
		<style>.cls-1{fill:url(#New_Gradient_Swatch);}.cls-2{fill:url(#New_Gradient_Swatch-2);}.cls-3{fill:url(#New_Gradient_Swatch-3);}.cls-4{fill:url(#New_Gradient_Swatch-4);}.cls-5{fill:url(#New_Gradient_Swatch-5);}.cls-6{fill:#ef5761;}.cls-7{fill:url(#New_Gradient_Swatch-6);}.cls-8{fill:url(#New_Gradient_Swatch-7);}.cls-9{fill:url(#New_Gradient_Swatch-8);}.cls-10{fill:url(#New_Gradient_Swatch-9);}</style>
		<linearGradient id="New_Gradient_Swatch" x1="204.53" y1="570.24" x2="1493.28" y2="600.29" gradientUnits="userSpaceOnUse">
			<stop offset="0" stop-color="#ef5761" />
			<stop offset="0.5" stop-color="#8b5ba5" />
			<stop offset="1" stop-color="#6287c5" />
		</linearGradient>
		<linearGradient id="New_Gradient_Swatch-2" x1="208.91" y1="382.06" x2="1497.67" y2="412.11" xlink:href="#New_Gradient_Swatch" />
		<linearGradient id="New_Gradient_Swatch-3" x1="204.82" y1="557.5" x2="1493.58" y2="587.55" xlink:href="#New_Gradient_Swatch" />
		<linearGradient id="New_Gradient_Swatch-4" x1="209.21" y1="369.34" x2="1497.97" y2="399.4" xlink:href="#New_Gradient_Swatch" />
		<linearGradient id="New_Gradient_Swatch-5" x1="967.21" y1="369.34" x2="2255.97" y2="399.4" xlink:href="#New_Gradient_Swatch" />
		<linearGradient id="New_Gradient_Swatch-6" x1="205.03" y1="550.13" x2="1493.78" y2="580.18" xlink:href="#New_Gradient_Swatch" />
		<linearGradient id="New_Gradient_Swatch-7" x1="310.61" y1="549.87" x2="1599.37" y2="579.92" gradientTransform="translate(223.41)" xlink:href="#New_Gradient_Swatch" />
		<linearGradient id="New_Gradient_Swatch-8" x1="203.83" y1="589.54" x2="1492.59" y2="619.59" xlink:href="#New_Gradient_Swatch" />
		<linearGradient id="New_Gradient_Swatch-9" x1="1263.4" y1="223.81" x2="1617.25" y2="232.06" xlink:href="#New_Gradient_Swatch" />
	</defs>
	<path class="cls-1" d="M505.17,459.68a34.55,34.55,0,0,0-1.59-3.16c-.49-.88-1-1.75-1.58-2.58s-1-1.45-1.59-2.15-1-1.29-1.59-1.9-1-1.11-1.59-1.64-1.05-1-1.59-1.47-1-.88-1.59-1.3-1-.8-1.59-1.17-1-.72-1.58-1.05-1.05-.64-1.59-.94-1.05-.56-1.59-.83-1.05-.5-1.59-.74-1.05-.44-1.59-.64-1-.39-1.59-.56-1.05-.34-1.58-.48-1.06-.29-1.59-.41l-1.59-.33c-.53-.1-1.06-.19-1.59-.26s-1.05-.15-1.59-.2-1.05-.09-1.59-.12-1,0-1.58-.05h-.45l-1.14,0-1.59.08q-.79.06-1.59.15c-.53.07-1.06.13-1.59.22s-1.06.18-1.59.29-1.06.23-1.58.36-1.07.29-1.59.45-1.07.33-1.59.52-1.07.38-1.59.6-1.06.44-1.59.68-1.06.51-1.59.78-1.06.57-1.58.88-1.07.64-1.59,1-1.07.72-1.59,1.1-1.07.8-1.59,1.22-1.07.9-1.59,1.37-1.07,1-1.59,1.56-1.07,1.15-1.58,1.75-1.09,1.3-1.59,2-1.09,1.53-1.59,2.33-1.1,1.84-1.59,2.8a36.82,36.82,0,0,0-3.18,8.81,37.28,37.28,0,0,0-.88,8V586.38s-.16,1.59-.71,4.2c-.34,1.67-.85,3.75-1.58,6.14-.45,1.43-1,3-1.59,4.57-.47,1.23-1,2.5-1.59,3.8-.49,1.07-1,2.15-1.59,3.25-.49.95-1,1.9-1.59,2.86s-1,1.7-1.59,2.55-1,1.54-1.58,2.31-1,1.41-1.59,2.11-1,1.29-1.59,1.93-1,1.15-1.59,1.72-1,1.08-1.59,1.61-1,1-1.59,1.52-1.05.9-1.58,1.35-1.05.85-1.59,1.27-1,.8-1.59,1.18-1.05.72-1.59,1.08-1,.69-1.59,1-1.05.61-1.59.91-1,.6-1.58.88-1.06.52-1.59.78-1.05.5-1.59.74-1,.46-1.59.68l-1.59.62c-.53.19-1,.4-1.59.59s-1.06.33-1.58.49l-1.59.5-1.59.42-1.59.37c-.53.13-1,.27-1.59.38s-1.06.18-1.59.28l-1.58.27c-.54.08-1,.19-1.59.26s-1.07.11-1.59.17l-1.59.16c-.53,0-1,.13-1.59.17s-1.06,0-1.59.07-1.05,0-1.59.06-1,.06-1.58.07l-.36,0h-2.47c-.26,0-.5,0-.76,0l-1-.05-1,0-1,0c-.33,0-.67,0-1-.05l-1-.08c-.34,0-.66-.07-1-.1l-1-.11-1-.1-1-.1-1-.16-1-.17-1-.16-1-.17-1-.19-1-.23-1-.24c-.33-.08-.67-.15-1-.24l-1-.23c-.35-.1-.66-.21-1-.3l-1-.31-1-.31c-.33-.11-.68-.2-1-.31l-1-.38-1-.38c-.33-.13-.67-.25-1-.39s-.68-.25-1-.39l-1-.47-1-.46-1-.47-1-.52-1-.55c-.33-.18-.67-.36-1-.55l-1-.58c-.34-.21-.66-.43-1-.65s-.67-.42-1-.64l-1-.67-1-.75-1-.74c-.33-.26-.67-.52-1-.79l-1-.85c-.33-.28-.68-.56-1-.84s-.66-.63-1-1-.68-.63-1-1-.67-.67-1-1-.67-.72-1-1.08-.68-.74-1-1.12-.67-.8-1-1.21-.68-.83-1-1.25-.67-.9-1-1.35-.68-.94-1-1.42-.68-1-1-1.5-.67-1.09-1-1.64-.68-1.15-1-1.73-.68-1.24-1-1.85-.68-1.37-1-2-.68-1.5-1-2.23-.69-1.66-1-2.46-.7-1.88-1-2.78c-.38-1.13-.71-2.21-1-3.23-.42-1.46-.75-2.79-1-3.95a43.19,43.19,0,0,1-.83-4.81v-8c0-1.16-.06-2.3-.17-3.44a35.74,35.74,0,0,0-1-5.79c-.28-1.1-.61-2.17-1-3.23-.3-.84-.64-1.67-1-2.48s-.64-1.4-1-2.08-.64-1.21-1-1.8-.66-1.07-1-1.59-.65-1-1-1.43-.65-.87-1-1.29-.65-.8-1-1.19-.66-.74-1-1.09-.66-.69-1-1-.65-.64-1-1-.66-.58-1-.86-.66-.55-1-.81l-1-.77-1-.71c-.33-.22-.66-.44-1-.65s-.66-.42-1-.62l-1-.57-1-.53-1-.5-1-.45-1-.42c-.33-.13-.66-.27-1-.39s-.66-.24-1-.35l-1-.33-1-.28c-.33-.1-.66-.19-1-.27l-1-.23-1-.2-1-.18-1-.14-1-.13-1-.08c-.33,0-.66-.06-1-.07l-1,0-.92,0H272l-1,0-1,0-1,.07-1,.1-1,.12-1,.15-1,.18-1,.21-1,.23c-.34.08-.67.18-1,.27l-1,.29c-.33.1-.66.22-1,.34l-1,.35-1,.4c-.34.13-.67.28-1,.43s-.67.29-1,.45-.67.34-1,.51-.67.35-1,.53l-1,.58q-.5.3-1,.63c-.34.21-.67.43-1,.66l-1,.71-1,.77c-.34.27-.67.55-1,.83l-1,.87c-.34.32-.67.63-1,1s-.67.68-1,1-.67.73-1,1.11-.67.8-1,1.21-.67.87-1,1.31-.68,1-1,1.46-.68,1.07-1,1.62-.68,1.21-1,1.83-.69,1.4-1,2.12-.7,1.72-1,2.61c-.39,1.13-.72,2.28-1,3.45a37.23,37.23,0,0,0-.89,5.92c.14,4.63.45,9.05.89,13.26.29,2.68.62,5.29,1,7.8.3,2,.64,3.9,1,5.78.31,1.67.64,3.3,1,4.89s.65,2.87,1,4.25.66,2.54,1,3.77.66,2.31,1,3.42.66,2.13,1,3.15.67,2,1,2.93.66,1.85,1,2.73.66,1.74,1,2.57.66,1.64,1,2.42.67,1.55,1,2.29.67,1.47,1,2.17.67,1.4,1,2.06.68,1.34,1,2,.68,1.28,1,1.87.68,1.23,1,1.78.69,1.18,1,1.69.7,1.13,1,1.59c.4.63.74,1.13,1,1.51.39.57.63.88.63.88l.36.58c.33.53.67,1.05,1,1.57s.66,1,1,1.52l1,1.5c.33.49.67,1,1,1.44s.66,1,1,1.42.66.9,1,1.36l1,1.34c.33.44.67.87,1,1.29s.66.86,1,1.28l1,1.23,1,1.22,1,1.17c.33.39.66.78,1,1.16l1,1.12,1,1.1,1,1.08,1,1,1,1c.33.34.66.68,1,1l1,1,1,1,1,.94c.33.31.66.62,1,.92l1,.9,1,.88c.33.29.66.58,1,.86l1,.85,1,.82,1,.82,1,.79,1,.78,1,.75c.33.25.66.51,1,.75l1,.73,1,.72,1,.69,1,.69,1,.67,1,.66,1,.64,1,.63,1,.62,1,.6,1,.6,1,.58,1,.57,1,.55,1,.55,1,.53,1,.53,1,.51,1,.5,1,.49,1,.48,1,.47,1,.46,1,.45,1,.44,1,.43,1,.42,1,.41,1,.4,1,.39,1,.38,1,.38,1,.36,1,.36,1,.34,1,.35,1,.32,1,.33,1,.31,1,.31,1,.29,1,.29,1,.28,1,.28,1,.26,1,.26,1,.25,1,.24,1,.24,1,.22,1,.22c.33.08.66.14,1,.21l1,.21,1,.19,1,.19,1,.19,1,.17,1,.17,1,.16,1,.15,1,.15,1,.13,1,.13,1,.13,1,.11,1,.11,1,.1,1,.1,1,.08,1,.08,1,.07,1,.06,1,.06,1,0,1,0,1,0,1,0h9.75l1.59,0,1.59-.06,1.59-.07,1.59-.1,1.59-.12,1.58-.14,1.59-.15,1.59-.18,1.59-.19,1.59-.21,1.59-.24c.52-.07,1.05-.16,1.58-.25l1.59-.26,1.59-.29,1.59-.31,1.59-.32,1.59-.35,1.58-.36,1.59-.38,1.59-.41,1.59-.42,1.59-.44,1.59-.46,1.58-.49,1.59-.5,1.59-.52,1.59-.55,1.59-.57,1.59-.59,1.58-.61,1.59-.64,1.59-.66,1.59-.69,1.59-.71,1.59-.73,1.58-.76,1.59-.79,1.59-.82,1.59-.84,1.59-.87,1.59-.91q.8-.45,1.59-.93l1.58-1c.53-.32,1.06-.66,1.59-1l1.59-1,1.59-1.06,1.59-1.1,1.59-1.14c.53-.39,1.06-.78,1.58-1.18l1.59-1.21c.53-.41,1.06-.82,1.59-1.25l1.59-1.3q.79-.66,1.59-1.35t1.59-1.38l1.58-1.43c.54-.49,1.06-1,1.59-1.5s1.06-1,1.59-1.54,1.06-1.06,1.59-1.6l1.59-1.64c.53-.57,1.06-1.13,1.59-1.71s1.06-1.19,1.58-1.79,1.07-1.23,1.59-1.85,1.06-1.27,1.59-1.92,1.06-1.32,1.59-2,1.06-1.37,1.59-2.07l1.59-2.16c.53-.74,1.06-1.5,1.58-2.26s1.07-1.57,1.59-2.36,1.07-1.63,1.59-2.47c.22-.35.45-.69.67-1,0,0,.34-.44.92-1.31.41-.61,1-1.45,1.59-2.48.48-.79,1-1.69,1.59-2.71s1-1.88,1.58-3,1.05-2,1.59-3.19,1.05-2.22,1.59-3.44,1.06-2.45,1.59-3.77,1.06-2.69,1.59-4.13,1.07-3,1.59-4.57,1.07-3.39,1.59-5.18,1.08-3.91,1.58-6q.85-3.48,1.59-7.24c.6-3.08,1.14-6.3,1.59-9.67a179.11,179.11,0,0,0,1.59-24V474.67a37,37,0,0,0-1.59-10.74A36,36,0,0,0,505.17,459.68Z" transform="translate(-235.25 -351.2)" />
	<path class="cls-2" d="M508.12,380.27c-.13-.59-.28-1.18-.43-1.76s-.28-1-.44-1.48-.28-.85-.43-1.27-.28-.76-.43-1.13-.28-.71-.43-1.06-.28-.64-.43-.95-.28-.6-.43-.9-.28-.56-.43-.84-.28-.52-.43-.78-.28-.5-.43-.75-.28-.47-.43-.7-.28-.45-.43-.67-.28-.44-.43-.66l-.43-.6c-.14-.2-.28-.41-.43-.61l-.43-.55-.43-.54c-.14-.18-.28-.36-.43-.53l-.43-.5-.43-.5c-.14-.15-.28-.31-.43-.46s-.28-.3-.43-.45-.28-.31-.43-.46l-.43-.41c-.14-.14-.28-.28-.43-.41s-.28-.28-.43-.41l-.43-.38-.43-.38-.43-.37-.43-.35-.43-.33-.43-.34-.43-.33-.43-.3-.43-.31-.43-.3-.43-.28-.43-.27-.43-.28-.43-.26-.43-.25-.43-.24-.43-.25-.43-.22-.43-.22-.43-.22-.43-.21-.43-.2-.43-.19-.43-.2-.43-.18-.43-.17-.43-.17-.43-.17-.43-.15-.43-.15-.43-.15-.43-.14-.43-.13-.43-.13-.44-.12-.43-.12-.43-.11-.43-.1-.43-.1-.43-.1-.43-.09-.43-.08-.43-.07-.43-.08-.43-.08-.43-.05-.43-.06-.43-.05-.43,0-.43,0-.43,0-.43,0-.43,0-.43,0h-.86l-.43,0h-2.32l-.27,0-.27,0-.27,0-.27,0-.27,0-.27,0-.27,0-.27,0-.27,0-.27,0-.27,0-.27,0-.27,0-.27,0-.27,0-.27.05-.27,0-.27.05-.27.05-.27.05-.27.05-.27.06-.27.06-.27.07-.27.06-.27.06-.27.06-.27.08-.27.07-.27.08-.27.08-.27.07-.27.08-.27.08-.27.09-.27.09-.27.09-.27.1-.27.09-.27.09-.27.1-.27.11-.27.11-.27.1-.27.11-.27.11-.27.11-.27.12-.27.13-.27.12-.27.12-.27.12-.27.14-.27.13-.27.14-.27.14-.27.14-.27.14-.27.15-.27.15-.27.16-.27.15-.27.16-.27.15-.27.18-.27.17-.27.17-.27.17-.27.18-.27.18-.27.19-.27.19-.27.19-.27.2-.27.19-.27.21-.27.21-.27.22-.27.21-.27.21-.27.23-.27.24-.27.23-.27.23-.27.24-.27.25-.27.26-.27.26-.27.25-.27.26-.27.29-.27.28-.27.28-.27.29-.27.3-.27.31-.27.31-.27.31-.27.32-.27.35-.27.34-.27.34-.27.36c-.1.12-.18.25-.27.38l-.27.38-.27.38-.27.39c-.1.14-.18.28-.27.42l-.27.42c-.09.15-.19.28-.27.43s-.18.3-.27.46l-.27.47c-.09.15-.19.31-.27.47l-.27.5c-.1.17-.18.35-.27.52s-.19.35-.27.53l-.27.56c-.1.2-.18.4-.27.6s-.19.4-.27.6-.18.44-.27.66-.19.46-.27.69-.19.48-.27.72-.18.53-.27.8-.19.54-.27.82-.19.63-.27.95-.19.68-.27,1-.19.78-.27,1.17-.19.95-.27,1.44-.2,1.24-.27,1.86a36.07,36.07,0,0,0,0,8.81c.07.63.16,1.25.27,1.87s.17,1,.27,1.44.17.78.27,1.17.17.68.27,1,.17.63.27.95.18.55.27.82.17.53.27.8.18.48.27.72.17.46.27.68.17.45.27.67.18.4.27.59.17.4.27.6l.27.57c.08.17.18.35.27.52s.17.36.27.53l.27.5c.08.16.18.31.27.47l.27.47c.09.15.17.31.27.46s.18.28.27.42l.27.42c.09.14.17.29.27.42l.27.4.27.38.27.38c.09.13.17.26.27.38l.27.35.27.35.27.34.27.34.27.32.27.31.27.32.27.31.27.3.27.28.27.28.27.29.27.28.27.26.27.26.27.26.27.25.27.26.27.23.27.24.27.23.27.23.27.24.27.21.27.21.27.21.27.21.27.22.27.19.27.19.27.19.27.2.27.19.27.18.27.17.27.17.27.18.27.17.27.17.27.16.27.15.27.16.27.15.27.16.27.15.27.14.27.14.27.13.27.14.27.14.27.13.27.12.27.13.27.12.27.12.27.12.27.12.27.11.27.1.27.11.27.11.27.1.27.11.27.09.27.09.27.09.27.09.27.09.27.1.27.08.27.07.27.08.27.08.27.07.27.08.27.07.27.07.27.06.27.06.27.06.27.06.27.07.27.05.27,0,.27.05.27.05.27,0,.27,0,.27.05.27,0,.27,0,.27,0,.27,0,.27,0,.27,0,.27,0,.27,0,.27,0,.27,0,.27,0,.27,0,.27,0h3.88l.43,0,.43,0,.43,0,.43,0,.43,0,.43-.05.43-.06.43-.05.43-.06.43-.07.43-.08.43-.08.43-.07.43-.1.43-.09.43-.1.43-.1.43-.11.43-.13.44-.12.43-.12.43-.13.43-.15.43-.14.43-.15.43-.16.43-.16.43-.17.43-.17.43-.19L487,422l.43-.2.43-.19.43-.21.43-.22.43-.22.43-.22.43-.25.43-.25.43-.25.43-.26.43-.27.43-.28.43-.27.43-.31.43-.3.43-.31.43-.32.43-.34.43-.34.43-.35.43-.37.43-.37.43-.38c.15-.13.29-.27.43-.41l.43-.41.43-.42.43-.45.43-.45.43-.47c.15-.16.29-.33.43-.49l.43-.5c.15-.17.29-.35.43-.53s.29-.36.43-.55.29-.36.43-.55l.43-.6c.15-.21.29-.4.43-.61s.29-.43.43-.65.29-.44.43-.67.29-.47.43-.71.29-.49.43-.74.29-.52.43-.79.29-.56.43-.84.29-.59.43-.89.3-.63.43-.95.29-.7.43-1.06.3-.75.43-1.13.3-.84.43-1.27.3-1,.44-1.48.3-1.17.43-1.77.31-1.5.43-2.27a37.4,37.4,0,0,0,0-11.31C508.43,381.78,508.28,381,508.12,380.27Z" transform="translate(-235.25 -351.2)" />
	<path class="cls-3" d="M1051.58,459.68c-.49-1.09-1-2.14-1.59-3.16s-1-1.75-1.59-2.58-1-1.45-1.59-2.15-1-1.29-1.59-1.9-1-1.11-1.59-1.64-1-1-1.59-1.47-1-.88-1.58-1.3-1-.8-1.59-1.17-1-.72-1.59-1.05-1-.64-1.59-.94-1-.56-1.59-.83-1-.5-1.59-.74-1-.44-1.58-.64-1.06-.39-1.59-.56-1.06-.34-1.59-.48-1.06-.29-1.59-.41-1.05-.23-1.59-.33-1-.19-1.59-.26-1.05-.15-1.58-.2-1.06-.09-1.59-.12-1.06,0-1.59-.05h-.44c-.39,0-.77,0-1.15,0l-1.59.08q-.79.06-1.59.15c-.53.07-1.06.13-1.58.22s-1.07.18-1.59.29-1.07.23-1.59.36-1.06.29-1.59.45-1.06.33-1.59.52-1.06.38-1.59.6-1.06.44-1.58.68-1.07.51-1.59.78-1.07.57-1.59.88-1.07.64-1.59,1-1.07.72-1.59,1.1-1.07.8-1.59,1.22-1.07.9-1.59,1.37-1.07,1-1.58,1.56-1.08,1.15-1.59,1.75-1.08,1.3-1.59,2-1.09,1.53-1.59,2.33-1.1,1.84-1.59,2.8a37.2,37.2,0,0,0-4.06,16.84V586.38s-.16,1.59-.7,4.2c-.35,1.67-.86,3.75-1.59,6.14-.44,1.43-1,3-1.59,4.57-.47,1.23-1,2.5-1.59,3.8-.48,1.07-1,2.15-1.59,3.25-.49.95-1,1.9-1.58,2.86s-1,1.7-1.59,2.55-1,1.54-1.59,2.31-1,1.41-1.59,2.11-1,1.29-1.59,1.93-1,1.15-1.59,1.72-1,1.08-1.58,1.61-1,1-1.59,1.52-1,.9-1.59,1.35-1.05.85-1.59,1.27-1,.8-1.59,1.18-1,.72-1.59,1.08-1,.69-1.58,1-1.06.61-1.59.91-1,.6-1.59.88-1.06.52-1.59.78-1.05.5-1.59.74-1,.46-1.59.68l-1.58.62c-.53.19-1.05.4-1.59.59s-1.06.33-1.59.49l-1.59.5-1.59.42-1.59.37c-.53.13-1,.27-1.59.38s-1.06.18-1.58.28l-1.59.27c-.54.08-1.05.19-1.59.26s-1.06.11-1.59.17l-1.59.16c-.53,0-1,.13-1.59.17s-1.06,0-1.58.07l-1.59.06c-.54,0-1.05.06-1.59.07l-.36,0h-2.46c-.26,0-.5,0-.76,0l-1-.05-1,0-1,0c-.33,0-.68,0-1-.05l-1-.08c-.34,0-.66-.07-1-.1l-1-.11-1-.1-1-.1-1-.16-1-.17-1-.16-1-.17-1-.19-1-.23-1-.24c-.33-.08-.67-.15-1-.24l-1-.23c-.34-.1-.66-.21-1-.3l-1-.31-1-.31c-.33-.11-.68-.2-1-.31l-1-.38-1-.38c-.34-.13-.67-.25-1-.39s-.67-.25-1-.39-.66-.32-1-.47l-1-.46-1-.47-1-.52-1-.55-1-.55-1-.58c-.34-.21-.66-.43-1-.65s-.68-.42-1-.64l-1-.67-1-.75c-.33-.24-.67-.49-1-.74l-1-.79-1-.85-1-.84c-.35-.31-.67-.63-1-1s-.67-.63-1-1-.67-.67-1-1-.66-.72-1-1.08-.68-.74-1-1.12-.67-.8-1-1.21-.67-.83-1-1.25-.67-.9-1-1.35-.68-.94-1-1.42-.67-1-1-1.5-.68-1.09-1-1.64-.68-1.15-1-1.73-.68-1.24-1-1.85-.67-1.37-1-2-.69-1.5-1-2.23-.69-1.66-1-2.46-.69-1.88-1-2.78c-.39-1.13-.71-2.21-1-3.23-.41-1.46-.75-2.79-1-3.95a46.38,46.38,0,0,1-.83-4.81v-8c0-1.16-.06-2.3-.17-3.44a36.85,36.85,0,0,0-1-5.79c-.28-1.1-.62-2.17-1-3.23-.3-.84-.64-1.67-1-2.48s-.64-1.4-1-2.08-.65-1.21-1-1.8-.65-1.07-1-1.59-.65-1-1-1.43-.65-.87-1-1.29-.66-.8-1-1.19-.66-.74-1-1.09-.65-.69-1-1-.66-.64-1-1-.66-.58-1-.86-.66-.55-1-.81-.66-.52-1-.77-.66-.48-1-.71-.66-.44-1-.65l-1-.62c-.33-.19-.66-.39-1-.57s-.66-.36-1-.53l-1-.5-1-.45-1-.42c-.33-.13-.66-.27-1-.39s-.66-.24-1-.35-.66-.23-1-.33l-1-.28q-.49-.15-1-.27l-1-.23-1-.2-1-.18-1-.14-1-.13-1-.08c-.33,0-.66-.06-1-.07s-.67,0-1,0l-.92,0h-.08l-1,0c-.34,0-.67,0-1,0l-1,.07-1,.1-1,.12-1,.15-1,.18c-.33.06-.66.14-1,.21l-1,.23c-.34.08-.67.18-1,.27l-1,.29c-.33.1-.66.22-1,.34l-1,.35-1,.4c-.33.13-.66.28-1,.43s-.67.29-1,.45-.67.34-1,.51l-1,.53-1,.58c-.34.2-.67.41-1,.63s-.67.43-1,.66-.67.47-1,.71-.67.51-1,.77-.67.55-1,.83l-1,.87c-.34.32-.68.63-1,1s-.67.68-1,1-.67.73-1,1.11-.67.8-1,1.21-.68.87-1,1.31-.68,1-1,1.46-.68,1.07-1,1.62-.69,1.21-1,1.83-.69,1.4-1,2.12-.69,1.72-1,2.61c-.38,1.13-.72,2.28-1,3.45a36.13,36.13,0,0,0-.9,5.92q.23,6.94.9,13.26c.28,2.68.61,5.29,1,7.8.31,2,.65,3.9,1,5.78.32,1.67.65,3.3,1,4.89s.65,2.87,1,4.25.65,2.54,1,3.77.66,2.31,1,3.42.66,2.13,1,3.15.66,2,1,2.93.67,1.85,1,2.73.67,1.74,1,2.57.66,1.64,1,2.42.66,1.55,1,2.29.67,1.47,1,2.17.67,1.4,1,2.06.67,1.34,1,2l1,1.87c.35.63.68,1.23,1,1.78s.68,1.18,1,1.69.7,1.13,1,1.59c.4.63.74,1.13,1,1.51.4.57.63.88.63.88l.37.58,1,1.57,1,1.52c.33.51.66,1,1,1.5s.66,1,1,1.44.67,1,1,1.42.67.9,1,1.36.66.9,1,1.34.66.87,1,1.29l1,1.28c.33.42.66.83,1,1.23l1,1.22,1,1.17c.33.39.66.78,1,1.16s.66.75,1,1.12l1,1.1,1,1.08,1,1,1,1,1,1c.33.33.66.66,1,1l1,1,1,.94,1,.92,1,.9,1,.88,1,.86,1,.85,1,.82,1,.82,1,.79,1,.78,1,.75,1,.75,1,.73,1,.72,1,.69,1,.69,1,.67,1,.66,1,.64,1,.63,1,.62,1,.6,1,.6,1,.58,1,.57,1,.55,1,.55,1,.53,1,.53,1,.51,1,.5,1,.49,1,.48,1,.47,1,.46,1,.45,1,.44,1,.43,1,.42,1,.41,1,.4,1,.39,1,.38,1,.38,1,.36,1,.36,1,.34,1,.35,1,.32,1,.33,1,.31,1,.31,1,.29,1,.29,1,.28,1,.28,1,.26,1,.26,1,.25,1,.24,1,.24,1,.22,1,.22,1,.21,1,.21,1,.19,1,.19,1,.19,1,.17,1,.17,1,.16,1,.15,1,.15,1,.13,1,.13,1,.13,1,.11,1,.11,1,.1,1,.1,1,.08,1,.08,1,.07,1,.06,1,.06,1,0,1,0,1,0,1,0h9.75l1.58,0,1.59-.06,1.59-.07,1.59-.1,1.59-.12,1.59-.14,1.58-.15,1.59-.18,1.59-.19,1.59-.21,1.59-.24c.52-.07,1.05-.16,1.59-.25l1.59-.26,1.58-.29,1.59-.31,1.59-.32,1.59-.35,1.59-.36,1.59-.38,1.58-.41,1.59-.42,1.59-.44,1.59-.46,1.59-.49,1.59-.5,1.58-.52,1.59-.55,1.59-.57,1.59-.59,1.59-.61,1.59-.64,1.58-.66,1.59-.69,1.59-.71,1.59-.73,1.59-.76,1.59-.79,1.58-.82,1.59-.84,1.59-.87,1.59-.91q.8-.45,1.59-.93t1.59-1c.53-.32,1.06-.66,1.58-1l1.59-1,1.59-1.06,1.59-1.1,1.59-1.14,1.59-1.18,1.59-1.21c.53-.41,1.06-.82,1.58-1.25l1.59-1.3q.79-.66,1.59-1.35l1.59-1.38,1.59-1.43,1.59-1.5c.53-.5,1.06-1,1.58-1.54s1.06-1.06,1.59-1.6l1.59-1.64c.53-.57,1.06-1.13,1.59-1.71l1.59-1.79,1.59-1.85c.53-.63,1.06-1.27,1.58-1.92s1.07-1.32,1.59-2,1.07-1.37,1.59-2.07l1.59-2.16c.53-.74,1.06-1.5,1.59-2.26l1.59-2.36c.53-.81,1.06-1.63,1.58-2.47.23-.35.45-.69.67-1,0,0,.34-.44.92-1.31.42-.61,1-1.45,1.59-2.48.48-.79,1-1.69,1.59-2.71s1-1.88,1.59-3,1-2,1.59-3.19,1-2.22,1.58-3.44,1.06-2.45,1.59-3.77,1.06-2.69,1.59-4.13,1.07-3,1.59-4.57,1.07-3.39,1.59-5.18,1.08-3.91,1.59-6q.84-3.48,1.59-7.24.9-4.62,1.58-9.67a179.11,179.11,0,0,0,1.59-24V474.67a37,37,0,0,0-1.59-10.74A36,36,0,0,0,1051.58,459.68Z" transform="translate(-235.25 -351.2)" />
	<path class="cls-4" d="M1053.89,380.27c-.13-.59-.27-1.18-.43-1.76s-.27-1-.43-1.48-.28-.85-.43-1.27-.28-.76-.43-1.13-.28-.71-.43-1.06-.28-.64-.43-.95-.28-.6-.43-.9-.28-.56-.43-.84-.28-.52-.43-.78-.28-.5-.43-.75-.28-.47-.43-.7-.29-.45-.43-.67-.28-.44-.43-.66l-.43-.6c-.14-.2-.28-.41-.43-.61s-.29-.36-.43-.55l-.43-.54-.43-.53-.43-.5-.43-.5-.43-.46c-.14-.16-.29-.3-.43-.45s-.29-.31-.43-.46l-.43-.41-.43-.41-.43-.41-.43-.38-.43-.38-.43-.37-.43-.35-.43-.33-.43-.34-.43-.33-.43-.3-.43-.31-.43-.3-.43-.28-.43-.27-.44-.28-.43-.26-.43-.25-.43-.24-.43-.25-.43-.22-.43-.22-.43-.22-.43-.21-.43-.2-.43-.19-.43-.2L1032,354l-.43-.17-.43-.17-.43-.17-.43-.15c-.14-.06-.29-.1-.43-.15l-.43-.15-.43-.14-.43-.13-.43-.13-.43-.12-.43-.12-.43-.11-.43-.1-.43-.1-.43-.1-.43-.09-.43-.08-.43-.07-.43-.08-.43-.08-.43-.05-.43-.06-.43-.05-.43,0-.43,0-.43,0-.43,0-.43,0-.43,0h-.86l-.43,0h-2.32l-.27,0-.27,0-.27,0-.27,0-.27,0-.27,0-.27,0-.27,0-.27,0-.27,0-.27,0-.27,0-.27,0-.27,0-.27,0-.27.05-.27,0-.27.05-.27.05-.27.05-.27.05-.27.06-.27.06-.27.07-.27.06-.27.06-.27.06-.27.08-.27.07-.27.08-.27.08-.27.07-.27.08-.27.08-.27.09-.27.09-.27.09-.27.1-.27.09-.27.09-.27.1-.27.11-.27.11-.27.1-.27.11-.27.11a2.18,2.18,0,0,0-.27.11l-.27.12-.27.13-.27.12-.27.12-.27.12-.27.14-.27.13-.27.14-.27.14-.28.14-.27.14-.27.15-.27.15-.27.16-.27.15-.27.16-.27.15-.27.18-.27.17-.27.17-.27.17-.27.18-.27.18c-.09.06-.17.13-.27.19l-.27.19-.27.19-.27.2-.27.19-.27.21-.27.21-.27.22-.27.21-.27.21-.27.23-.27.24-.27.23-.27.23-.27.24-.27.25-.27.26-.27.26-.27.25-.27.26-.27.29-.27.28-.27.28-.27.29-.27.3-.27.31-.27.31-.27.31-.27.32-.27.35-.27.34-.27.34-.27.36-.27.38-.27.38-.27.38-.27.39-.27.42-.27.42-.27.43-.27.46-.27.47-.27.47-.27.5-.27.52-.27.53-.27.56-.27.6-.27.6-.27.66-.27.69-.27.72-.27.8-.27.82-.27.95-.27,1-.27,1.17q-.15.7-.27,1.44c-.1.61-.19,1.24-.27,1.86a36.07,36.07,0,0,0,0,8.81c.08.63.17,1.25.27,1.87s.17,1,.27,1.44l.27,1.17.27,1,.27.95.27.82.27.8.27.72.27.68.27.67.27.59.27.6.27.57.27.52.27.53.27.5.27.47.27.47.27.46.27.42.27.42c.09.14.18.29.27.42l.27.4.27.38.27.38.27.38.27.35.27.35.27.34.27.34.27.32.27.31.27.32.27.31.27.3.27.28.27.28.27.29.27.28.27.26.27.26.27.26.27.25.27.26c.09.08.19.15.27.23l.27.24.27.23.27.23.27.24.27.21.27.21.27.21.27.21c.1.07.18.15.27.22a2.61,2.61,0,0,1,.27.19l.27.19.27.19.27.2c.1.06.18.13.27.19l.27.18.27.17.27.17.27.18a2.46,2.46,0,0,1,.27.17l.27.17.27.16.27.15.27.16.27.15.27.16.27.15.27.14.28.14.27.13a2.29,2.29,0,0,0,.27.14,2.29,2.29,0,0,0,.27.14l.27.13a2.21,2.21,0,0,0,.27.12,2.24,2.24,0,0,0,.27.13l.27.12.27.12.27.12.27.12.27.11.27.1.27.11.27.11.27.1.27.11.27.09.27.09.27.09.27.09.27.09.27.1.27.08.27.07.27.08.27.08.27.07.27.08.27.07.27.07.27.06.27.06.27.06.27.06.27.07.27.05.27,0,.27.05.27.05.27,0,.27,0,.27.05.27,0,.27,0,.27,0,.27,0,.27,0,.27,0,.27,0,.27,0,.27,0,.27,0,.27,0,.27,0,.27,0h3.88l.43,0,.43,0,.43,0,.43,0,.43,0,.43-.05.43-.06.43-.05.43-.06.43-.07.43-.08.43-.08.43-.07.43-.1.43-.09.43-.1.43-.1.43-.11.43-.13.43-.12.43-.12.43-.13.43-.15.43-.14.43-.15.43-.16.43-.16.43-.17.43-.17.43-.19.43-.19.43-.2.43-.19.43-.21.43-.22.43-.22.43-.22.43-.25.43-.25.43-.25c.15-.08.29-.17.43-.26s.29-.18.44-.27l.43-.28.43-.27.43-.31.43-.3.43-.31.43-.32.43-.34.43-.34.43-.35.43-.37.43-.37.43-.38.43-.41.43-.41.43-.42.43-.45.43-.45.43-.47c.14-.16.28-.33.43-.49l.43-.5.43-.53c.14-.18.29-.36.43-.55s.29-.36.43-.55l.43-.6c.14-.21.29-.4.43-.61s.29-.43.43-.65.29-.44.43-.67.29-.47.43-.71.29-.49.43-.74.29-.52.43-.79.29-.56.43-.84.29-.59.43-.89.29-.63.43-.95.29-.7.43-1.06.29-.75.43-1.13.3-.84.43-1.27.3-1,.43-1.48.3-1.17.43-1.77.31-1.5.43-2.27a37.4,37.4,0,0,0,0-11.31C1054.2,381.78,1054.06,381,1053.89,380.27Z" transform="translate(-235.25 -351.2)" />
	<path class="cls-5" d="M1811.89,380.27c-.13-.59-.27-1.18-.43-1.76s-.27-1-.43-1.48-.28-.85-.43-1.27-.28-.76-.43-1.13-.28-.71-.43-1.06-.28-.64-.43-.95-.28-.6-.43-.9-.28-.56-.43-.84-.28-.52-.43-.78-.28-.5-.43-.75-.28-.47-.43-.7-.29-.45-.43-.67-.28-.44-.43-.66l-.43-.6c-.14-.2-.28-.41-.43-.61s-.29-.36-.43-.55l-.43-.54-.43-.53-.43-.5-.43-.5-.43-.46c-.14-.16-.29-.3-.43-.45s-.29-.31-.43-.46l-.43-.41-.43-.41-.43-.41-.43-.38-.43-.38-.43-.37-.43-.35-.43-.33-.43-.34-.43-.33-.43-.3-.43-.31-.43-.3-.43-.28-.43-.27-.44-.28-.43-.26-.43-.25-.43-.24-.43-.25-.43-.22-.43-.22-.43-.22-.43-.21-.43-.2-.43-.19-.43-.2L1790,354l-.43-.17-.43-.17-.43-.17-.43-.15c-.14-.06-.29-.1-.43-.15l-.43-.15-.43-.14-.43-.13-.43-.13-.43-.12-.43-.12-.43-.11-.43-.1-.43-.1-.43-.1-.43-.09-.43-.08-.43-.07-.43-.08-.43-.08-.43-.05-.43-.06-.43-.05-.43,0-.43,0-.43,0-.43,0-.43,0-.43,0h-.86l-.43,0h-2.32l-.27,0-.27,0-.27,0-.27,0-.27,0-.27,0-.27,0-.27,0-.27,0-.27,0-.27,0-.27,0-.27,0-.27,0-.27,0-.27.05-.27,0-.27.05-.27.05-.27.05-.27.05-.27.06-.27.06-.27.07-.27.06-.27.06-.27.06-.27.08-.27.07-.27.08-.27.08-.27.07-.27.08-.27.08-.27.09-.27.09-.27.09-.27.1-.27.09-.27.09-.27.1-.27.11-.27.11-.27.1-.27.11-.27.11a2.18,2.18,0,0,0-.27.11l-.27.12-.27.13-.27.12-.27.12-.27.12-.27.14-.27.13-.27.14-.27.14-.28.14-.27.14-.27.15-.27.15-.27.16-.27.15-.27.16-.27.15-.27.18-.27.17-.27.17-.27.17-.27.18-.27.18c-.09.06-.17.13-.27.19l-.27.19-.27.19-.27.2-.27.19-.27.21-.27.21-.27.22-.27.21-.27.21-.27.23-.27.24-.27.23-.27.23-.27.24-.27.25-.27.26-.27.26-.27.25-.27.26-.27.29-.27.28-.27.28-.27.29-.27.3-.27.31-.27.31-.27.31-.27.32-.27.35-.27.34-.27.34-.27.36-.27.38-.27.38-.27.38-.27.39-.27.42-.27.42-.27.43-.27.46-.27.47-.27.47-.27.5-.27.52-.27.53-.27.56-.27.6-.27.6-.27.66-.27.69-.27.72-.27.8-.27.82-.27.95-.27,1-.27,1.17q-.15.7-.27,1.44c-.1.61-.19,1.24-.27,1.86a36.07,36.07,0,0,0,0,8.81c.08.63.17,1.25.27,1.87s.17,1,.27,1.44l.27,1.17.27,1,.27.95.27.82.27.8.27.72.27.68.27.67.27.59.27.6.27.57.27.52.27.53.27.5.27.47.27.47.27.46.27.42.27.42.27.42.27.4.27.38.27.38.27.38.27.35.27.35.27.34.27.34.27.32.27.31.27.32.27.31.27.3.27.28.27.28.27.29.27.28.27.26.27.26.27.26.27.25.27.26c.09.08.19.15.27.23l.27.24.27.23.27.23.27.24.27.21.27.21.27.21.27.21c.1.07.18.15.27.22a2.61,2.61,0,0,1,.27.19l.27.19.27.19.27.2c.1.06.18.13.27.19l.27.18.27.17.27.17.27.18a2.46,2.46,0,0,1,.27.17l.27.17.27.16.27.15.27.16.27.15.27.16.27.15.27.14.28.14.27.13a2.29,2.29,0,0,0,.27.14,2.29,2.29,0,0,0,.27.14l.27.13a2.21,2.21,0,0,0,.27.12,2.24,2.24,0,0,0,.27.13l.27.12.27.12.27.12.27.12.27.11.27.1.27.11.27.11.27.1.27.11.27.09.27.09.27.09.27.09c.09,0,.18.07.27.09l.27.1.27.08.27.07.27.08.27.08.27.07.27.08.27.07.27.07.27.06.27.06.27.06.27.06.27.07.27.05.27,0,.27.05.27.05.27,0,.27,0,.27.05.27,0,.27,0,.27,0,.27,0,.27,0,.27,0,.27,0,.27,0,.27,0,.27,0,.27,0,.27,0,.27,0h3.88l.43,0,.43,0,.43,0,.43,0,.43,0,.43-.05.43-.06.43-.05.43-.06.43-.07.43-.08.43-.08.43-.07.43-.1.43-.09.43-.1.43-.1.43-.11.43-.13.43-.12.43-.12.43-.13.43-.15.43-.14.43-.15.43-.16.43-.16.43-.17.43-.17.43-.19.43-.19.43-.2.43-.19.43-.21.43-.22.43-.22.43-.22.43-.25.43-.25.43-.25c.15-.08.29-.17.43-.26s.29-.18.44-.27l.43-.28.43-.27.43-.31.43-.3.43-.31.43-.32.43-.34.43-.34.43-.35.43-.37.43-.37.43-.38.43-.41.43-.41.43-.42.43-.45.43-.45.43-.47c.14-.16.28-.33.43-.49l.43-.5.43-.53c.14-.18.29-.36.43-.55s.29-.36.43-.55l.43-.6c.14-.21.29-.4.43-.61s.29-.43.43-.65.29-.44.43-.67.29-.47.43-.71.29-.49.43-.74.29-.52.43-.79.29-.56.43-.84.29-.59.43-.89.29-.63.43-.95.29-.7.43-1.06.29-.75.43-1.13.3-.84.43-1.27.3-1,.43-1.48.3-1.17.43-1.77.31-1.5.43-2.27a37.4,37.4,0,0,0,0-11.31C1812.2,381.78,1812.06,381,1811.89,380.27Z" transform="translate(-235.25 -351.2)" />
	<path class="cls-6" d="M1182.1,581.05q.12.72.27,1.44t.27,1.17q.12.51.27,1c.08.32.17.63.27,1s.18.55.27.82.17.53.27.8.18.48.27.72.17.46.27.68.17.45.27.67.18.4.27.6.17.4.27.59l.27.57c.08.17.18.35.27.52s.17.36.27.53l.27.5c.08.16.18.31.27.47l.27.47c.09.15.17.31.27.46s.18.28.27.42l.27.42c.09.14.17.29.27.43l.27.39.27.38.27.38c.09.13.17.26.27.38l.27.35.27.35.27.34.27.34.27.32.27.32.27.31.27.31.27.3.27.28.27.29.27.28.27.28.27.26.27.26.27.26.27.26.27.25.27.23.27.24.27.23.27.24.27.23.27.21.27.21.27.21.27.22.27.21.27.19.27.19.27.19.27.2.27.19.27.18.27.17.27.18.27.17.27.17.27.17.27.16.27.15.27.16.27.15.27.16.27.15.27.14.27.14.27.14.27.13.27.14.27.13.27.13.27.12.27.12.27.12.27.12.27.12.27.11.27.1.27.11.27.11.27.1.27.11.27.09.27.09.27.09.27.09.27.1.27.09.27.08.27.07.27.08.27.08.27.07.27.08.27.07.27.07.27.06.27.06.27.06.27.07.27.06.27,0,.27.05.27,0,.27.05.27,0,.27,0,.27.05.27,0,.27,0,.27,0,.27,0,.27,0,.27,0,.27,0,.27,0,.27,0,.27,0,.27,0,.27,0,.27,0,.27,0h3.61l.43,0,.43,0,.43,0,.43,0,.43,0,.43-.05.43-.06.43-.05.43-.06.43-.07.43-.08.43-.08.43-.07.43-.09.43-.1.43-.1.43-.1.43-.11.43-.13.44-.12.43-.12.43-.13.43-.15.43-.14.43-.15.43-.15.43-.17.43-.17.43-.17.43-.19.43-.19.43-.19.43-.2.43-.21.43-.22.43-.22.43-.22.43-.25.43-.25.43-.25.43-.25.43-.28.43-.28.43-.27.43-.31.43-.3.43-.31.43-.32.43-.34.43-.34.43-.34.43-.38.43-.37.43-.38c.15-.13.29-.27.43-.41l.43-.41.43-.42c.15-.14.29-.3.43-.45l.43-.45c.15-.15.29-.31.43-.47s.29-.33.43-.49l.43-.5c.15-.17.29-.35.43-.53s.29-.36.43-.55.29-.36.43-.55l.43-.6c.15-.2.29-.4.43-.61s.29-.43.43-.65.29-.44.43-.67.29-.47.43-.71.29-.49.43-.74.29-.52.43-.79.29-.55.43-.84.29-.59.43-.89.3-.63.43-1,.29-.7.43-1.06.3-.75.43-1.13.3-.84.44-1.27.29-1,.43-1.48.3-1.17.43-1.76c.16-.75.31-1.51.43-2.28a37.4,37.4,0,0,0,0-11.31c-.12-.76-.27-1.52-.43-2.27-.13-.59-.28-1.18-.43-1.76s-.28-1-.43-1.48-.28-.85-.44-1.27-.28-.76-.43-1.13-.28-.71-.43-1.06-.28-.64-.43-.95-.28-.6-.43-.9-.28-.56-.43-.84-.28-.52-.43-.78-.28-.5-.43-.75-.28-.47-.43-.7-.28-.45-.43-.67-.28-.44-.43-.65-.28-.41-.43-.61-.28-.41-.43-.6l-.43-.56-.43-.54c-.14-.18-.28-.36-.43-.53l-.43-.5-.43-.5c-.14-.15-.28-.31-.43-.46s-.28-.3-.43-.45-.28-.31-.43-.46l-.43-.41c-.14-.14-.28-.28-.43-.41s-.28-.28-.43-.41l-.43-.38-.43-.38-.43-.37-.43-.35-.43-.33-.43-.34-.43-.33-.43-.3-.43-.31-.43-.3-.43-.28-.43-.27-.43-.28-.43-.26-.43-.24-.43-.25-.43-.25-.43-.22-.43-.22-.43-.22-.43-.21-.43-.2-.43-.19-.43-.2-.43-.18-.43-.17-.43-.17-.43-.17L1231,540l-.43-.15-.43-.14-.43-.15-.43-.13-.43-.12-.44-.13L1228,539l-.43-.11-.43-.1-.43-.1-.43-.1-.43-.09-.43-.08-.43-.07-.43-.08-.43-.07c-.14,0-.28,0-.43-.06l-.43,0-.43-.06-.43,0-.43,0-.43,0-.43,0-.43,0-.43,0H1219l-.43,0h-1.89l-.27,0-.27,0-.27,0-.27,0-.27,0-.27,0-.27,0-.27,0-.27,0-.27,0-.27,0-.27,0-.27,0-.27,0-.27,0-.27,0-.27.05-.27,0-.27.05-.27,0-.27,0-.27.06-.27.06-.27.07-.27.06-.27.06-.27.06-.27.08-.27.07-.27.08-.27.08-.27.07-.27.08-.27.08-.27.09-.27.09-.27.1-.27.09-.27.09-.27.09-.27.1-.27.11-.27.11-.27.1-.27.11-.27.11-.27.11-.27.13-.27.12-.27.12-.27.12-.27.12-.27.14-.27.13-.27.14-.27.14-.27.14-.27.14-.27.15-.27.15-.27.16-.27.15-.27.16-.27.15-.27.18-.27.17-.27.17-.27.18-.27.17-.27.18-.27.19-.27.19-.27.2-.27.19-.27.19-.27.21-.27.21-.27.22-.27.21-.27.21-.27.23-.27.24-.27.23-.27.23-.27.24-.27.25-.27.26-.27.26-.27.25-.27.27-.27.28-.27.28-.27.29-.27.28-.27.3-.27.31-.27.31-.27.31-.27.32-.27.35-.27.34-.27.35-.27.35c-.1.12-.18.25-.27.38l-.27.38-.27.38-.27.39c-.1.14-.18.28-.27.42l-.27.42c-.09.15-.19.28-.27.43s-.18.3-.27.46l-.27.47c-.09.15-.19.31-.27.47l-.27.5c-.1.17-.18.35-.27.52s-.19.35-.27.53l-.27.56c-.1.2-.18.4-.27.6s-.19.4-.27.6-.18.44-.27.66-.19.46-.27.69-.19.48-.27.72-.18.53-.27.8-.19.54-.27.82-.19.63-.27,1-.19.68-.27,1-.19.78-.27,1.17-.19,1-.27,1.44-.2,1.24-.27,1.86a36.07,36.07,0,0,0,0,8.81C1181.9,579.81,1182,580.43,1182.1,581.05Z" transform="translate(-235.25 -351.2)" />
	<path class="cls-7" d="M1350.51,544.13c-.48-2.2-1-4.37-1.6-6.53q-.75-2.75-1.6-5.46-.76-2.39-1.6-4.74c-.51-1.43-1-2.86-1.6-4.27s-1-2.57-1.6-3.85-1-2.38-1.6-3.56-1.05-2.22-1.6-3.32-1-2.08-1.6-3.11-1-2-1.6-2.92-1-1.85-1.6-2.77-1-1.76-1.6-2.63-1.05-1.67-1.6-2.5-1-1.6-1.59-2.39-1.06-1.54-1.6-2.29-1.06-1.47-1.6-2.2-1.06-1.4-1.6-2.09-1.06-1.35-1.6-2-1.06-1.31-1.6-2-1.06-1.27-1.6-1.89-1.06-1.21-1.6-1.81l-1.6-1.74c-.53-.57-1.06-1.14-1.6-1.7s-1.06-1.1-1.6-1.64l-1.6-1.57-1.6-1.54c-.53-.5-1.06-1-1.6-1.49s-1.06-1-1.6-1.43-1.06-.94-1.6-1.4-1.06-.91-1.6-1.35-1.06-.88-1.6-1.31l-1.59-1.28c-.53-.42-1.07-.82-1.6-1.23l-1.6-1.2-1.6-1.17-1.6-1.12c-.53-.37-1.06-.74-1.6-1.1s-1.07-.7-1.6-1.05-1.06-.7-1.6-1l-1.6-1-1.6-1c-.53-.32-1.06-.64-1.6-.95s-1.06-.6-1.6-.9-1.06-.61-1.6-.9l-1.6-.84-1.6-.84-1.6-.79c-.53-.26-1.06-.53-1.6-.78s-1.06-.5-1.6-.75l-1.59-.73-1.6-.7-1.6-.68-1.6-.65-1.6-.63-1.6-.61-1.6-.58-1.6-.56c-.53-.19-1.07-.36-1.6-.54l-1.6-.52-1.6-.49c-.53-.17-1.06-.32-1.6-.48l-1.6-.45-1.6-.43c-.53-.15-1.06-.28-1.6-.42l-1.6-.39-1.6-.37-1.6-.35-1.59-.33-1.6-.31-1.6-.3-1.6-.26-1.6-.26-1.6-.23-1.6-.22c-.53-.07-1.07-.12-1.6-.18l-1.6-.19-1.6-.15-1.6-.14-1.6-.12-1.6-.1-1.6-.08c-.53,0-1.06,0-1.6-.06l-1.6-.05c-.53,0-1.06,0-1.6,0l-1.6,0h-3l-1,0-1,0-1,0-1,0c-.34,0-.67.05-1,.06l-1,.07-1,.06-1,.08c-.34,0-.67.06-1,.09l-1,.09-1,.08-1,.12-1,.11-1,.12-1,.13-1,.14-1,.14-1,.14-1,.17-1,.17-1,.16-1,.19-1,.19-1,.19-1,.2-1,.22-1,.22-1,.22-1,.25-1,.24-1,.25-1,.26-1,.27-1,.28-1,.28-1,.3-1,.3-1,.3-1,.33-1,.33-1,.32-1,.36-1,.35-1,.35-1,.38-1,.38-1,.39-1,.4-1,.41-1,.41-1,.43-1,.44-1,.44-1,.46-1,.46-1,.47-1,.49-1,.5-1,.5-1,.52c-.34.17-.67.35-1,.53l-1,.53-1,.55-1,.56-1,.56c-.34.19-.67.39-1,.59l-1,.59c-.33.2-.67.39-1,.6l-1,.62-1,.63-1,.63-1,.66-1,.66-1,.68-1,.69-1,.7-1,.72-1,.73-1,.74-1,.76-1,.77-1,.79-1,.81-1,.81-1,.84-1,.85-1,.86-1,.89-1,.9-1,.92-1,.94-1,1c-.34.32-.67.65-1,1l-1,1-1,1c-.34.34-.67.68-1,1s-.67.71-1,1.07l-1,1.08-1,1.11-1,1.13c-.34.38-.67.77-1,1.15s-.68.79-1,1.19l-1,1.2-1,1.25-1,1.26-1,1.31c-.34.44-.68.88-1,1.33s-.67.91-1,1.37-.68.93-1,1.4-.67,1-1,1.45-.67,1-1,1.48-.68,1-1,1.52-.67,1.05-1,1.58-.68,1.06-1,1.6-.67,1.12-1,1.69-.68,1.14-1,1.71-.67,1.2-1,1.8-.67,1.23-1,1.85-.68,1.26-1,1.9-.67,1.35-1,2-.68,1.39-1,2.09l-1,2.16c-.34.76-.67,1.53-1,2.3s-.68,1.61-1,2.42-.67,1.69-1,2.55-.68,1.8-1,2.7-.68,1.93-1,2.9-.68,2.09-1,3.14-.69,2.29-1,3.44-.68,2.55-1,3.84c-.36,1.45-.69,2.9-1,4.37-.36,1.72-.7,3.46-1,5.21-.39,2.27-.73,4.56-1,6.87a137.5,137.5,0,0,0,0,33.27c.27,2.31.61,4.6,1,6.87.3,1.75.64,3.49,1,5.22.32,1.46.65,2.92,1,4.36s.65,2.57,1,3.84.66,2.3,1,3.44.65,2.1,1,3.14.66,1.94,1,2.9.67,1.81,1,2.71.66,1.7,1,2.55.66,1.61,1,2.41.66,1.54,1,2.3.67,1.45,1,2.17.67,1.39,1,2.08.66,1.35,1,2,.67,1.27,1,1.9.66,1.24,1,1.86.66,1.2,1,1.79.67,1.15,1,1.72.66,1.12,1,1.68.67,1.07,1,1.61.66,1.05,1,1.57.67,1,1,1.53l1,1.48,1,1.44c.33.47.67.94,1,1.4l1,1.38,1,1.32c.33.44.66.88,1,1.31l1,1.26c.34.42.67.84,1,1.25l1,1.2c.33.4.67.8,1,1.19s.66.77,1,1.15l1,1.14,1,1.11,1,1.07c.34.36.67.72,1,1.07s.66.69,1,1l1,1,1,1,1,1,1,1,1,.94,1,.93,1,.89c.33.3.66.6,1,.89l1,.86,1,.85,1,.85,1,.8,1,.81,1,.79,1,.77c.34.25.67.52,1,.77l1,.73,1,.73,1,.73,1,.69,1,.7,1,.67,1,.66c.34.22.67.45,1,.66l1,.64,1,.62,1,.63,1,.59,1,.6,1,.58,1,.56,1,.57,1,.55,1,.53,1,.53,1,.51,1,.5,1,.5,1,.49,1,.47,1,.47,1,.45,1,.44,1,.44,1,.43,1,.41,1,.41,1,.41,1,.38,1,.38,1,.38,1,.35,1,.36,1,.35,1,.33,1,.32,1,.33,1,.31,1,.29,1,.3,1,.29,1,.27,1,.27,1,.27,1,.24,1,.25,1,.24,1,.22,1,.22,1,.22,1,.2,1,.19,1,.2,1,.18,1,.17,1,.16,1,.17,1,.14,1,.15,1,.14,1,.12c.33,0,.67.08,1,.12l1,.11,1,.12,1,.09,1,.09,1,.09,1,.07,1,.07,1,.06,1,.06,1,0,1,0,1,0,1,0h1l1,0h138.56V573.71a138.93,138.93,0,0,0-1.6-21C1351.67,549.79,1351.13,546.94,1350.51,544.13Zm-132,90.63c-80.26-1.37-80.24-120.75,0-122.11C1298.81,514,1298.8,633.4,1218.55,634.76Z" transform="translate(-235.25 -351.2)" />
	<path class="cls-6" d="M1511.1,580.79q.12.72.27,1.44t.27,1.17q.12.51.27,1c.08.32.17.64.27,1s.18.55.27.82.17.54.27.8.18.48.27.72.17.46.27.69.17.44.27.66.18.4.27.6.17.4.27.59l.27.57c.08.17.18.35.27.52s.17.36.27.53l.27.5c.08.16.18.32.27.47l.27.47c.09.16.17.31.27.46s.18.28.27.42l.27.43c.09.14.17.28.27.42l.27.39.27.38.27.38c.09.13.17.26.27.38l.27.35.27.35.27.34.27.34.27.33.27.31.27.31.27.31.27.3.27.28.27.29.27.28.27.28.27.26.27.26.27.26.27.26.27.25.27.24.27.23.27.23.27.24.27.23.27.21.27.21.27.21.27.22.27.21.27.19.27.19.27.2.27.19.27.19.27.18.27.17.27.18.27.17.27.17.27.18.27.15.27.16.27.15.27.16.27.15.27.15.27.14.27.14.27.14.27.14.27.13.27.14.27.12.27.12.27.12.27.12.27.13.27.11.27.11.27.11.27.1.27.11.27.11.27.1.27.09.27.09.27.09.27.1.27.09.27.09.27.08.27.08.27.07.27.08.27.08.27.07.27.08.27.06.27.06.27.06.27.06.27.07.27.06.27,0,.27.05.27,0,.27.05.27,0,.27,0,.27.05.27,0,.27,0,.27,0,.27,0,.27,0,.27,0,.27,0,.27,0,.27,0,.27,0,.27,0,.27,0,.27,0,.27,0h1.89l.43,0h1.29l.43,0,.43,0,.43,0,.43,0,.43,0,.43,0,.43-.06.43-.05c.15,0,.29,0,.43-.06l.43-.07.43-.08.43-.07.43-.08.43-.09.43-.1.43-.1.43-.1.43-.11.43-.12.44-.13.43-.12.43-.13.43-.15.43-.14.43-.15.43-.15.43-.17.43-.17.43-.17.43-.18.43-.2.43-.19.43-.2.43-.21.43-.22.43-.22.43-.22.43-.25.43-.25.43-.24.43-.26.43-.28.43-.27.43-.28.43-.3.43-.31.43-.31.43-.32.43-.34.43-.33.43-.35c.15-.12.29-.25.43-.38l.43-.37.43-.38c.15-.13.29-.27.43-.41s.29-.27.43-.41.29-.27.43-.42.29-.3.43-.45l.43-.45c.15-.15.29-.31.43-.46l.43-.5.43-.5c.15-.17.29-.35.43-.53l.43-.54.43-.56c.15-.19.29-.4.43-.6s.29-.4.43-.61.29-.43.43-.65.29-.44.43-.67.29-.47.43-.7.29-.5.43-.75.29-.52.43-.78.29-.56.43-.84.29-.6.43-.9.3-.63.43-1,.29-.7.43-1.06.3-.75.43-1.13.3-.84.44-1.27.29-1,.43-1.48.3-1.17.43-1.76c.16-.75.31-1.51.43-2.27a37.47,37.47,0,0,0,0-11.32c-.12-.76-.27-1.52-.43-2.27-.13-.59-.28-1.18-.43-1.76s-.28-1-.43-1.48-.28-.85-.44-1.27-.28-.76-.43-1.13-.28-.71-.43-1.06-.28-.64-.43-.95-.28-.6-.43-.89-.28-.57-.43-.84-.28-.53-.43-.79-.28-.5-.43-.75-.28-.47-.43-.7-.28-.45-.43-.67-.28-.44-.43-.65-.28-.41-.43-.61l-.43-.6c-.14-.19-.28-.37-.43-.55s-.28-.37-.43-.55-.28-.36-.43-.53l-.43-.5c-.14-.16-.28-.33-.43-.49s-.28-.32-.43-.47l-.43-.45c-.14-.15-.28-.31-.43-.45s-.29-.28-.43-.42-.28-.28-.43-.41-.28-.28-.43-.41l-.43-.38-.43-.37-.43-.38-.43-.34-.43-.34-.43-.34-.43-.32-.43-.31-.43-.31-.43-.3-.43-.27-.43-.28-.43-.28-.43-.26-.43-.24-.43-.25-.43-.25-.43-.22-.43-.22-.43-.22-.43-.21-.43-.2-.43-.19-.43-.19-.43-.19-.43-.17-.43-.17-.43-.17-.43-.15-.43-.15-.43-.14-.43-.15-.43-.13-.43-.12-.44-.13-.43-.12-.43-.11-.43-.1-.43-.1-.43-.1-.43-.09-.43-.07-.43-.08-.43-.08-.43-.07-.43-.06-.43,0-.43-.06-.43,0-.43,0-.43,0-.43,0-.43,0-.43,0h-3.61l-.27,0-.27,0-.27,0-.27,0-.27,0-.27,0-.27,0-.27,0-.27,0-.27,0-.27,0-.27,0-.27,0-.27,0-.27,0-.27,0-.27,0-.27,0-.27.05-.27,0-.27,0-.27.06-.27.07-.27.06-.27.06-.27.06-.27.07-.27.07-.27.08-.27.07-.27.08-.27.08-.27.07-.27.08-.27.09-.27.1-.27.09-.27.09-.27.09-.27.09-.27.11-.27.1-.27.11-.27.11-.27.1-.27.11-.27.12-.27.12-.27.12-.27.12-.27.12-.27.13-.27.13-.27.14-.27.13-.27.14-.27.14-.27.14-.27.15-.27.15-.27.16-.27.16-.27.15-.27.16-.27.17-.27.17-.27.17-.27.18-.27.17-.27.18-.27.19-.27.2-.27.19-.27.19-.27.19-.27.21-.27.22-.27.21-.27.21-.27.21-.27.23-.27.24-.27.23-.27.24-.27.23-.27.25-.27.26-.27.26-.27.26-.27.26-.27.28-.27.28-.27.29-.27.28-.27.3-.27.31-.27.31-.27.32-.27.32-.27.34-.27.34-.27.35-.27.35c-.1.12-.18.25-.27.38l-.27.38-.27.38-.27.39c-.1.14-.18.29-.27.42l-.27.43c-.09.14-.19.27-.27.42s-.18.31-.27.46l-.27.47c-.09.16-.19.31-.27.47l-.27.5c-.1.17-.18.35-.27.53s-.19.35-.27.52l-.27.57c-.1.19-.18.39-.27.59s-.19.4-.27.6-.18.44-.27.67-.19.45-.27.68-.19.48-.27.72-.18.53-.27.8-.19.54-.27.82-.19.63-.27,1-.19.68-.27,1-.19.78-.27,1.17-.19,1-.27,1.44-.2,1.24-.27,1.87a36,36,0,0,0,0,8.8C1510.9,579.55,1511,580.17,1511.1,580.79Z" transform="translate(-235.25 -351.2)" />
	<path class="cls-8" d="M1679.51,543.87c-.48-2.2-1-4.37-1.6-6.53q-.75-2.75-1.6-5.45-.76-2.4-1.6-4.74c-.51-1.44-1-2.86-1.6-4.27s-1-2.58-1.6-3.86-1-2.38-1.6-3.56-1.05-2.22-1.6-3.32-1-2.08-1.6-3.11-1-1.95-1.6-2.92-1-1.85-1.6-2.77-1-1.76-1.6-2.63-1.05-1.67-1.6-2.5-1-1.6-1.59-2.39-1.06-1.53-1.6-2.29-1.06-1.47-1.6-2.19-1.06-1.41-1.6-2.1-1.06-1.35-1.6-2-1.06-1.31-1.6-2-1.06-1.27-1.6-1.89-1.06-1.21-1.6-1.8-1.06-1.17-1.6-1.75-1.06-1.14-1.6-1.7-1.06-1.1-1.6-1.64l-1.6-1.57-1.6-1.54c-.53-.5-1.06-1-1.6-1.49s-1.06-1-1.6-1.43-1.06-.94-1.6-1.4-1.06-.91-1.6-1.35-1.06-.88-1.6-1.31l-1.59-1.28c-.53-.42-1.07-.82-1.6-1.23l-1.6-1.2-1.6-1.16-1.6-1.13c-.53-.37-1.06-.74-1.6-1.1s-1.07-.7-1.6-1.05-1.06-.7-1.6-1-1.06-.67-1.6-1l-1.6-1c-.53-.32-1.06-.64-1.6-.95l-1.6-.9-1.6-.9-1.6-.84-1.6-.84-1.6-.79c-.53-.26-1.06-.53-1.6-.78s-1.06-.5-1.6-.75l-1.59-.73-1.6-.7-1.6-.67-1.6-.66-1.6-.63-1.6-.61-1.6-.58-1.6-.56-1.6-.54-1.6-.52-1.6-.49-1.6-.48-1.6-.45-1.6-.43-1.6-.42-1.6-.39-1.6-.37-1.6-.35-1.59-.33-1.6-.31-1.6-.29-1.6-.27-1.6-.26-1.6-.22-1.6-.23c-.53-.07-1.07-.12-1.6-.18l-1.6-.19-1.6-.15-1.6-.14-1.6-.11-1.6-.11-1.6-.08L1550,436l-1.6-.05c-.53,0-1.06,0-1.6,0l-1.6,0h-3l-1,0-1,0-1,0-1,0-1,.07-1,.06-1,.06-1,.08-1,.09-1,.09c-.33,0-.67.05-1,.09l-1,.11-1,.12-1,.11-1,.13-1,.14-1,.14-1,.14-1,.17-1,.17-1,.16-1,.19-1,.19-1,.19-1,.21-1,.21-1,.22-1,.22-1,.25-1,.24-1,.25-1,.26-1,.28c-.34.09-.67.17-1,.27l-1,.28-1,.3-1,.3-1,.31-1,.32-1,.33c-.33.11-.67.21-1,.33l-1,.35-1,.35c-.33.12-.67.23-1,.36l-1,.37-1,.39-1,.38-1,.4-1,.41-1,.41-1,.43-1,.44-1,.44-1,.46-1,.47-1,.47-1,.48-1,.5-1,.5-1,.52c-.34.17-.67.35-1,.53l-1,.53-1,.55-1,.56-1,.56-1,.59-1,.59-1,.6-1,.62-1,.63-1,.63-1,.66-1,.66-1,.68-1,.69-1,.7-1,.72-1,.73-1,.74-1,.77c-.34.25-.67.51-1,.77l-1,.78-1,.81-1,.81-1,.84-1,.85-1,.86-1,.9-1,.89-1,.93-1,.93-1,1c-.34.32-.67.65-1,1l-1,1-1,1c-.34.35-.67.68-1,1s-.67.71-1,1.07l-1,1.08-1,1.11-1,1.13c-.34.38-.67.77-1,1.15l-1,1.19c-.33.4-.67.8-1,1.21l-1,1.24-1,1.26-1,1.31c-.34.44-.68.88-1,1.33s-.67.91-1,1.37-.68.93-1,1.4-.67,1-1,1.45-.67,1-1,1.48-.68,1-1,1.52-.67,1.05-1,1.58-.68,1.07-1,1.61-.67,1.12-1,1.68-.68,1.14-1,1.71-.67,1.2-1,1.8-.67,1.23-1,1.85l-1,1.9c-.34.67-.67,1.35-1,2s-.68,1.39-1,2.09l-1,2.16c-.34.77-.67,1.53-1,2.3s-.68,1.61-1,2.42-.67,1.69-1,2.55-.68,1.8-1,2.71-.68,1.92-1,2.89-.68,2.09-1,3.14-.69,2.29-1,3.44-.68,2.55-1,3.84c-.36,1.45-.69,2.9-1,4.37-.36,1.72-.7,3.46-1,5.22-.39,2.27-.73,4.56-1,6.86a137.5,137.5,0,0,0,0,33.27c.27,2.31.61,4.6,1,6.87.3,1.75.64,3.49,1,5.22.32,1.46.65,2.92,1,4.37.32,1.28.65,2.56,1,3.83s.66,2.3,1,3.44.65,2.1,1,3.14.66,1.94,1,2.9.67,1.81,1,2.71.66,1.7,1,2.55.66,1.61,1,2.42.66,1.53,1,2.29.67,1.45,1,2.17.67,1.39,1,2.08.66,1.35,1,2,.67,1.27,1,1.91l1,1.85c.33.6.66,1.2,1,1.79s.67,1.15,1,1.72.66,1.12,1,1.68.67,1.07,1,1.61.66,1.05,1,1.57.67,1,1,1.53.66,1,1,1.48.66,1,1,1.45l1,1.39,1,1.38,1,1.32c.33.44.66.88,1,1.31s.67.84,1,1.26.67.84,1,1.25l1,1.2c.33.4.67.8,1,1.19l1,1.16,1,1.13,1,1.11,1,1.08c.34.35.67.71,1,1.07l1,1c.33.35.67.69,1,1l1,1,1,1,1,1,1,.93,1,.93,1,.89c.33.3.66.6,1,.89l1,.87,1,.84,1,.85,1,.81,1,.8,1,.79,1,.77,1,.77,1,.73,1,.74,1,.72,1,.69,1,.7,1,.67c.33.23.67.44,1,.66l1,.67,1,.63,1,.62,1,.63,1,.59,1,.6,1,.58,1,.57,1,.56,1,.55,1,.53,1,.53,1,.52,1,.5,1,.49,1,.49,1,.47,1,.47,1,.46,1,.44,1,.43,1,.43,1,.41,1,.42,1,.4,1,.38,1,.38,1,.38,1,.35,1,.36,1,.35,1,.33,1,.33,1,.32,1,.31,1,.3,1,.29,1,.29,1,.27,1,.27,1,.27,1,.24,1,.25c.33.08.66.17,1,.24l1,.22,1,.22,1,.22,1,.2,1,.2,1,.19,1,.18,1,.17,1,.17,1,.16,1,.15,1,.14,1,.14,1,.13,1,.11,1,.12,1,.11,1,.09,1,.09,1,.09,1,.07,1,.07,1,.06c.34,0,.67,0,1,.06l1,0,1,0,1,0,1,0h1l1,0h138.56V573.45a139,139,0,0,0-1.6-21C1680.67,549.53,1680.13,546.69,1679.51,543.87Zm-132,90.63c-80.26-1.37-80.24-120.75,0-122.11C1627.81,513.76,1627.8,633.15,1547.55,634.5Z" transform="translate(-235.25 -351.2)" />
	<path class="cls-9" d="M643,486.82a113,113,0,1,0,112.95,113A113,113,0,0,0,643,486.82ZM643,645a45.18,45.18,0,1,1,45.18-45.18A45.18,45.18,0,0,1,643,645Z" transform="translate(-235.25 -351.2)" />
	<rect class="cls-10" x="1505.46" y="99.8" width="72" height="261" rx="36" />
</svg>